# xmcd
#
# Track frame offsets:
#	150
#	16741
#	32201
#	44957
#	63520
#	79102
#	90782
#	102239
#	112337
#	122596
#	131302
#	144688
#	159247
#	174305
#	189899
#	204646
#	215891
#	229695
#	242943
#	256521
#
# Disc length: 3593 seconds
#
# Revision: 0
# Processed by: cddbd v1.5.2PL0 Copyright (c) Steve Scherf et al.
# Submitted via: audiograbber 1.83.01
#
DISCID=110e0714
DTITLE=Verschiedene - Greatest Ever! Country
DYEAR=2017
DGENRE=Country
TTITLE0=K.D. Lang - Constant Craving
TTITLE1=Billy Bob Thornton - Angelina
TTITLE2=Jonny Cash - Folsom Prison Blues
TTITLE3=Leann Rimes - How Do I Live
TTITLE4=Sugarland - Stuck Like Glue
TTITLE5=Jerry Lee Lewis - What's Make Milwaukee Famous
TTITLE6=Hank Williams III - Six Pack Of Beer
TTITLE7=JJ Cale - Cajun Moon
TTITLE8=Jonny Cash and June Carter - If I Were A Carpenter
TTITLE9=Emmylou Harris, Alliso Kraus and Gillian Welch - Didn't Leave Nobody But 
TTITLE9=The Baby
TTITLE10=Faron Young - It's Four In The Morning
TTITLE11=Rita Remington - I've Never Gone This Before
TTITLE12=Tim McGraw - Better Than I Used To Be
TTITLE13=Rod Hart - C.B. Savage
TTITLE14=Desert Rose Band - Ashes Of Love
TTITLE15=Carlene Carter - My Dixie Darlin'
TTITLE16=Carl Perkins - Tennessee
TTITLE17=Charlie Feathers - Honky Tonk Kind
TTITLE18=Patti Page - Tennessee Walz
TTITLE19=Ray Stevens - Misty
EXTD=
EXTT0=
EXTT1=
EXTT2=
EXTT3=
EXTT4=
EXTT5=
EXTT6=
EXTT7=
EXTT8=
EXTT9=
EXTT10=
EXTT11=
EXTT12=
EXTT13=
EXTT14=
EXTT15=
EXTT16=
EXTT17=
EXTT18=
EXTT19=
PLAYORDER=
